<svg width="7" height="6" viewBox="0 0 7 6" fill="none" xmlns="http://www.w3.org/2000/svg">
<path d="M6.54124 2.29167H3.98162V0.229167C3.98162 0.114583 3.83942 0 3.69722 0H3.12842C2.96844 0 2.84402 0.114583 2.84402 0.229167V2.29167H0.284402C0.124426 2.29167 0 2.40625 0 2.52083V2.97917C0 3.10807 0.124426 3.20833 0.284402 3.20833H2.84402V5.27083C2.84402 5.39974 2.96844 5.5 3.12842 5.5H3.69722C3.83942 5.5 3.98162 5.39974 3.98162 5.27083V3.20833H6.54124C6.68344 3.20833 6.82564 3.10807 6.82564 2.97917V2.52083C6.82564 2.40625 6.68344 2.29167 6.54124 2.29167Z" fill="#5E5E5E"/>
</svg>
