<svg width="19" height="20" viewBox="0 0 19 20" fill="none" xmlns="http://www.w3.org/2000/svg">
<g clip-path="url(#clip0_534_518)">
<path d="M9.72505 6.77069C8.17454 6.77069 6.9092 8.03602 6.9092 9.58654C6.9092 11.1371 8.17454 12.4024 9.72505 12.4024C11.2756 12.4024 12.5409 11.1371 12.5409 9.58654C12.5409 8.03602 11.2756 6.77069 9.72505 6.77069ZM18.1705 9.58654C18.1705 8.42048 18.1811 7.26499 18.1156 6.10105C18.0501 4.7491 17.7417 3.54925 16.7531 2.56064C15.7623 1.56991 14.5646 1.26361 13.2127 1.19813C12.0466 1.13264 10.8911 1.14321 9.72716 1.14321C8.56111 1.14321 7.40562 1.13264 6.24168 1.19813C4.88973 1.26361 3.68988 1.57203 2.70126 2.56064C1.71054 3.55136 1.40424 4.7491 1.33875 6.10105C1.27327 7.2671 1.28383 8.4226 1.28383 9.58654C1.28383 10.7505 1.27327 11.9081 1.33875 13.072C1.40424 14.424 1.71265 15.6238 2.70126 16.6124C3.69199 17.6032 4.88973 17.9095 6.24168 17.9749C7.40773 18.0404 8.56322 18.0299 9.72716 18.0299C10.8932 18.0299 12.0487 18.0404 13.2127 17.9749C14.5646 17.9095 15.7645 17.601 16.7531 16.6124C17.7438 15.6217 18.0501 14.424 18.1156 13.072C18.1832 11.9081 18.1705 10.7526 18.1705 9.58654ZM9.72505 13.9191C7.32746 13.9191 5.39248 11.9841 5.39248 9.58654C5.39248 7.18894 7.32746 5.25397 9.72505 5.25397C12.1226 5.25397 14.0576 7.18894 14.0576 9.58654C14.0576 11.9841 12.1226 13.9191 9.72505 13.9191ZM14.2351 6.08837C13.6753 6.08837 13.2232 5.63632 13.2232 5.07653C13.2232 4.51674 13.6753 4.06468 14.2351 4.06468C14.7949 4.06468 15.2469 4.51674 15.2469 5.07653C15.2471 5.20945 15.221 5.3411 15.1702 5.46394C15.1194 5.58678 15.0449 5.69839 14.9509 5.79238C14.8569 5.88638 14.7453 5.9609 14.6225 6.01169C14.4996 6.06248 14.368 6.08854 14.2351 6.08837Z" fill="white"/>
</g>
<defs>
<clipPath id="clip0_534_518">
<rect width="17.2697" height="19.1724" fill="white" transform="translate(0.763672 0.000976562)"/>
</clipPath>
</defs>
</svg>
