<svg width="23" height="25" viewBox="0 0 23 25" fill="none" xmlns="http://www.w3.org/2000/svg">
<g clip-path="url(#clip0_534_510)">
<path d="M10.6834 19.1806C11.9916 19.1885 13.2884 18.9489 14.4986 18.4757C15.7087 18.0025 16.8082 17.3052 17.7332 16.4243C18.6583 15.5433 19.3904 14.4961 19.8872 13.3436C20.3841 12.1911 20.6357 10.956 20.6274 9.71016V9.27499C21.3055 8.80183 21.8925 8.22039 22.3622 7.55644C21.7237 7.82241 21.048 7.9988 20.3564 8.08012C21.0897 7.66396 21.6399 7.00892 21.9053 6.23618C21.2218 6.62668 20.4724 6.90121 19.6903 7.04751C19.1637 6.51304 18.4667 6.15878 17.7073 6.03953C16.9479 5.92029 16.1685 6.04272 15.4895 6.38787C14.8105 6.73302 14.2699 7.28166 13.9513 7.94889C13.6327 8.61612 13.5539 9.36475 13.727 10.0789C12.3377 10.014 10.9783 9.67108 9.73733 9.07253C8.49638 8.47398 7.40172 7.63321 6.52462 6.60497C6.08235 7.33603 5.94829 8.19985 6.1496 9.0215C6.35091 9.84316 6.87253 10.5613 7.60886 11.0304C7.06567 11.0105 6.53504 10.869 6.05995 10.6174V10.6543C6.05512 11.4183 6.32537 12.1608 6.82566 12.758C7.32594 13.3553 8.02604 13.7712 8.80926 13.9365C8.30404 14.0659 7.77482 14.086 7.26035 13.9955C7.4871 14.647 7.91994 15.2158 8.49952 15.6239C9.07909 16.0319 9.77701 16.2592 10.4976 16.2746C9.26558 17.2191 7.73439 17.7389 6.15288 17.7497C5.87559 17.7421 5.59895 17.7199 5.32422 17.6833C6.92498 18.6547 8.78541 19.1668 10.6834 19.1585" fill="white"/>
</g>
<defs>
<clipPath id="clip0_534_510">
<rect width="22.323" height="23.6024" fill="white" transform="translate(0.466797 0.786133)"/>
</clipPath>
</defs>
</svg>
