<svg width="19" height="21" viewBox="0 0 19 21" fill="none" xmlns="http://www.w3.org/2000/svg">
<g clip-path="url(#clip0_534_514)">
<path d="M9.78883 16.6209H9.77162C9.71827 16.6209 4.38056 16.6105 3.03387 16.2448C2.67 16.1468 2.33826 15.9549 2.07186 15.6884C1.80547 15.4218 1.61376 15.09 1.51594 14.726C1.27378 13.3599 1.15684 11.9744 1.16658 10.587C1.16032 9.19731 1.28043 7.80991 1.52541 6.44196C1.62599 6.07743 1.81858 5.74486 2.08469 5.47619C2.3508 5.20752 2.68151 5.01175 3.04506 4.90768C4.35475 4.56348 9.54531 4.56348 9.7656 4.56348H9.78367C9.83788 4.56348 15.1894 4.5738 16.5223 4.93952C17.2614 5.14001 17.8388 5.71741 18.0385 6.45659C18.288 7.82823 18.4059 9.21967 18.3887 10.6137C18.3947 12.0017 18.2743 13.3874 18.029 14.7536C17.9299 15.1171 17.7374 15.4484 17.4707 15.7145C17.204 15.9806 16.8723 16.1724 16.5085 16.2706C15.2005 16.6174 10.0091 16.6209 9.78883 16.6209ZM8.06782 8.0098L8.06352 13.1728L12.5485 10.5913L8.06782 8.0098Z" fill="white"/>
</g>
<defs>
<clipPath id="clip0_534_514">
<rect width="18.6025" height="20.6521" fill="white" transform="translate(0.212891 0.261719)"/>
</clipPath>
</defs>
</svg>
