<svg width="19" height="14" viewBox="0 0 19 14" fill="none" xmlns="http://www.w3.org/2000/svg">
<path d="M0.78418 4.1748V11.455C0.78418 12.1301 1.05237 12.7776 1.52975 13.255C2.00713 13.7324 2.65459 14.0006 3.32971 14.0006H16.0574C16.7325 14.0006 17.3799 13.7324 17.8573 13.255C18.3347 12.7776 18.6029 12.1301 18.6029 11.455V4.1748L11.0274 8.83567C10.6263 9.08246 10.1645 9.21313 9.69354 9.21313C9.22256 9.21313 8.76082 9.08246 8.35968 8.83567L0.78418 4.1748Z" fill="white"/>
<path d="M18.6029 2.67959V2.54553C18.6029 1.87041 18.3347 1.22295 17.8573 0.745569C17.3799 0.268189 16.7325 0 16.0574 0H3.32971C2.65459 0 2.00713 0.268189 1.52975 0.745569C1.05237 1.22295 0.78418 1.87041 0.78418 2.54553V2.67959L9.02661 7.75199C9.22718 7.87538 9.45805 7.94072 9.69354 7.94072C9.92902 7.94072 10.1599 7.87538 10.3605 7.75199L18.6029 2.67959Z" fill="white"/>
</svg>
