<svg width="22" height="13" viewBox="0 0 22 13" fill="none" xmlns="http://www.w3.org/2000/svg">
<path d="M6.67942 3.87402H1.46782C1.29254 3.87402 1.15039 4.01612 1.15039 4.19145V6.56138C1.15039 6.73671 1.29254 6.8789 1.46782 6.8789H6.67942C6.85475 6.8789 6.9969 6.73671 6.9969 6.56138V4.19145C6.9969 4.01612 6.85475 3.87402 6.67942 3.87402Z" fill="#6689B6"/>
<path d="M16.9199 4.75879H15.0403C14.9652 4.75879 14.9043 4.81972 14.9043 4.89487V6.77439C14.9043 6.8495 14.9652 6.91043 15.0403 6.91043H16.9199C16.9949 6.91043 17.0558 6.8495 17.0558 6.77439V4.89487C17.0558 4.81972 16.9949 4.75879 16.9199 4.75879Z" fill="#6689B6"/>
<path d="M13.9042 4.75879H12.0248C11.9495 4.75879 11.8887 4.81972 11.8887 4.89487V6.77439C11.8887 6.8495 11.9495 6.91043 12.0248 6.91043H13.9042C13.9795 6.91043 14.0404 6.8495 14.0404 6.77439V4.89487C14.0404 4.81972 13.9794 4.75879 13.9042 4.75879Z" fill="#6689B6"/>
<path d="M10.8905 4.75879H9.01108C8.93588 4.75879 8.875 4.81972 8.875 4.89487V6.77439C8.875 6.8495 8.93588 6.91043 9.01108 6.91043H10.8905C10.9656 6.91043 11.0265 6.8495 11.0265 6.77439V4.89487C11.0265 4.81972 10.9656 4.75879 10.8905 4.75879Z" fill="#6689B6"/>
<path d="M13.9042 1.93945H12.0248C11.9495 1.93945 11.8887 2.00038 11.8887 2.07549V3.95501C11.8887 4.03012 11.9495 4.09105 12.0248 4.09105H13.9042C13.9795 4.09105 14.0404 4.03012 14.0404 3.95501V2.07549C14.0404 2.00038 13.9794 1.93945 13.9042 1.93945Z" fill="#6689B6"/>
<path d="M10.8905 1.93945H9.01108C8.93588 1.93945 8.875 2.00038 8.875 2.07549V3.95501C8.875 4.03012 8.93588 4.09105 9.01108 4.09105H10.8905C10.9656 4.09105 11.0265 4.03012 11.0265 3.95501V2.07549C11.0265 2.00038 10.9656 1.93945 10.8905 1.93945Z" fill="#6689B6"/>
<path d="M4.92421 0.72168H3.23022C3.13005 0.72168 3.04883 0.802945 3.04883 0.903112V3.05165C3.04883 3.15182 3.13005 3.23309 3.23022 3.23309H4.92421C5.02442 3.23309 5.1056 3.15187 5.1056 3.05165V0.903112C5.1056 0.802945 5.02438 0.72168 4.92421 0.72168Z" fill="#6689B6"/>
<path d="M21.9857 7.01717C21.9658 6.98125 21.9279 6.95898 21.8867 6.95898H18.2711C18.2362 6.95898 18.2032 6.97506 18.1818 7.00254L17.7024 7.61593H0.113409C0.0756952 7.61593 0.0405402 7.6347 0.0193933 7.66599C-0.00166379 7.69724 -0.00588419 7.73698 0.00825863 7.77191C0.00825863 7.77191 1.54408 11.5661 2.05695 12.8305C2.07432 12.8732 2.1159 12.9012 2.16205 12.9012H18.3404C18.3797 12.9012 18.4197 12.8876 18.4443 12.8476C19.326 11.4168 21.983 7.13207 21.983 7.13207C22.0047 7.09709 22.0057 7.05314 21.9857 7.01717ZM14.7634 9.85539C14.5176 9.85539 14.3182 9.65609 14.3182 9.41023C14.3182 9.16432 14.5176 8.96507 14.7634 8.96507C15.0093 8.96507 15.2086 9.16437 15.2086 9.41023C15.2086 9.65604 15.0093 9.85539 14.7634 9.85539ZM16.9213 9.85539C16.6753 9.85539 16.4761 9.65609 16.4761 9.41023C16.4761 9.16432 16.6753 8.96507 16.9213 8.96507C17.167 8.96507 17.3663 9.16437 17.3663 9.41023C17.3663 9.65604 17.167 9.85539 16.9213 9.85539Z" fill="#6689B6"/>
</svg>
