<svg width="38" height="37" viewBox="0 0 38 37" fill="none" xmlns="http://www.w3.org/2000/svg">
<path d="M0.314453 18.5C0.314453 8.28273 8.59719 0 18.8145 0C29.0317 0 37.3145 8.28273 37.3145 18.5C37.3145 28.7173 29.0317 37 18.8145 37C8.59719 37 0.314453 28.7173 0.314453 18.5Z" fill="#4691F2"/>
<path d="M19.9251 27.8779V19.4147H22.9389L23.3869 16.1011H19.9251V13.9904C19.9251 13.0342 20.2063 12.3795 21.6549 12.3795H23.4904V9.42526C22.5974 9.33459 21.6997 9.29081 20.8015 9.29412C18.1376 9.29412 16.3086 10.8348 16.3086 13.6631V16.0949H13.3145V19.4085H16.3151V27.8779H19.9251Z" fill="white"/>
</svg>
