<svg width="35" height="35" viewBox="0 0 35 35" fill="none" xmlns="http://www.w3.org/2000/svg">
<rect x="0.5" y="0.5" width="34" height="34" rx="7.5" fill="#F3F8FF" stroke="#E7EEF8"/>
<g clip-path="url(#clip0_534_457)">
<path d="M25.125 16.375H24.4734C24.3235 14.6089 23.5538 12.9528 22.3005 11.6995C21.0472 10.4462 19.3911 9.67654 17.625 9.52656V8.875C17.625 8.70924 17.5592 8.55027 17.4419 8.43306C17.3247 8.31585 17.1658 8.25 17 8.25C16.8342 8.25 16.6753 8.31585 16.5581 8.43306C16.4408 8.55027 16.375 8.70924 16.375 8.875V9.52656C14.6089 9.67654 12.9528 10.4462 11.6995 11.6995C10.4462 12.9528 9.67654 14.6089 9.52656 16.375H8.875C8.70924 16.375 8.55027 16.4408 8.43306 16.5581C8.31585 16.6753 8.25 16.8342 8.25 17C8.25 17.1658 8.31585 17.3247 8.43306 17.4419C8.55027 17.5592 8.70924 17.625 8.875 17.625H9.52656C9.67654 19.3911 10.4462 21.0472 11.6995 22.3005C12.9528 23.5538 14.6089 24.3235 16.375 24.4734V25.125C16.375 25.2908 16.4408 25.4497 16.5581 25.5669C16.6753 25.6842 16.8342 25.75 17 25.75C17.1658 25.75 17.3247 25.6842 17.4419 25.5669C17.5592 25.4497 17.625 25.2908 17.625 25.125V24.4734C19.3911 24.3235 21.0472 23.5538 22.3005 22.3005C23.5538 21.0472 24.3235 19.3911 24.4734 17.625H25.125C25.2908 17.625 25.4497 17.5592 25.5669 17.4419C25.6842 17.3247 25.75 17.1658 25.75 17C25.75 16.8342 25.6842 16.6753 25.5669 16.5581C25.4497 16.4408 25.2908 16.375 25.125 16.375ZM17.625 23.2188V22.625C17.625 22.4592 17.5592 22.3003 17.4419 22.1831C17.3247 22.0658 17.1658 22 17 22C16.8342 22 16.6753 22.0658 16.5581 22.1831C16.4408 22.3003 16.375 22.4592 16.375 22.625V23.2188C14.9413 23.0725 13.602 22.4361 12.5829 21.4171C11.5639 20.398 10.9275 19.0587 10.7812 17.625H11.375C11.5408 17.625 11.6997 17.5592 11.8169 17.4419C11.9342 17.3247 12 17.1658 12 17C12 16.8342 11.9342 16.6753 11.8169 16.5581C11.6997 16.4408 11.5408 16.375 11.375 16.375H10.7812C10.9275 14.9413 11.5639 13.602 12.5829 12.5829C13.602 11.5639 14.9413 10.9275 16.375 10.7812V11.375C16.375 11.5408 16.4408 11.6997 16.5581 11.8169C16.6753 11.9342 16.8342 12 17 12C17.1658 12 17.3247 11.9342 17.4419 11.8169C17.5592 11.6997 17.625 11.5408 17.625 11.375V10.7812C19.0587 10.9275 20.398 11.5639 21.4171 12.5829C22.4361 13.602 23.0725 14.9413 23.2188 16.375H22.625C22.4592 16.375 22.3003 16.4408 22.1831 16.5581C22.0658 16.6753 22 16.8342 22 17C22 17.1658 22.0658 17.3247 22.1831 17.4419C22.3003 17.5592 22.4592 17.625 22.625 17.625H23.2188C23.0725 19.0587 22.4361 20.398 21.4171 21.4171C20.398 22.4361 19.0587 23.0725 17.625 23.2188ZM20.125 17C20.125 17.6181 19.9417 18.2223 19.5983 18.7362C19.255 19.2501 18.7669 19.6506 18.1959 19.8871C17.6249 20.1236 16.9965 20.1855 16.3903 20.065C15.7842 19.9444 15.2273 19.6467 14.7903 19.2097C14.3533 18.7727 14.0556 18.2158 13.935 17.6097C13.8145 17.0035 13.8764 16.3751 14.1129 15.8041C14.3494 15.2331 14.7499 14.745 15.2638 14.4017C15.7777 14.0583 16.3819 13.875 17 13.875C17.8288 13.875 18.6237 14.2042 19.2097 14.7903C19.7958 15.3763 20.125 16.1712 20.125 17Z" fill="#4691F2"/>
</g>
<defs>
<clipPath id="clip0_534_457">
<rect width="20" height="20" fill="white" transform="translate(7 7)"/>
</clipPath>
</defs>
</svg>
