<svg width="19" height="18" viewBox="0 0 19 18" fill="none" xmlns="http://www.w3.org/2000/svg">
<path d="M10.1777 8.625C9.68045 8.625 9.20354 8.42746 8.85191 8.07583C8.50028 7.72419 8.30273 7.24728 8.30273 6.75C8.30273 6.25272 8.50028 5.77581 8.85191 5.42417C9.20354 5.07254 9.68045 4.875 10.1777 4.875C10.675 4.875 11.1519 5.07254 11.5036 5.42417C11.8552 5.77581 12.0527 6.25272 12.0527 6.75C12.0527 6.99623 12.0042 7.24005 11.91 7.46753C11.8158 7.69502 11.6777 7.90172 11.5036 8.07583C11.3294 8.24994 11.1228 8.38805 10.8953 8.48227C10.6678 8.5765 10.424 8.625 10.1777 8.625ZM10.1777 1.5C8.78535 1.5 7.44999 2.05312 6.46542 3.03769C5.48086 4.02226 4.92773 5.35761 4.92773 6.75C4.92773 10.6875 10.1777 16.5 10.1777 16.5C10.1777 16.5 15.4277 10.6875 15.4277 6.75C15.4277 5.35761 14.8746 4.02226 13.89 3.03769C12.9055 2.05312 11.5701 1.5 10.1777 1.5Z" fill="white"/>
</svg>
