<svg width="24" height="24" viewBox="0 0 24 24" fill="none" xmlns="http://www.w3.org/2000/svg">
<g clip-path="url(#clip0_534_556)">
<path d="M6.85705 2.44546C8.00005 3.27846 8.89005 4.41546 9.65004 5.50346L10.092 6.14746L10.509 6.76246C10.7176 7.06719 10.8068 7.43801 10.7596 7.80426C10.7124 8.17051 10.5321 8.50659 10.253 8.74846L8.30205 10.1975C8.20779 10.2655 8.14144 10.3655 8.11532 10.4788C8.08921 10.5921 8.1051 10.711 8.16005 10.8135C8.60205 11.6165 9.38805 12.8125 10.288 13.7125C11.189 14.6125 12.441 15.4505 13.3 15.9425C13.4077 16.0029 13.5345 16.0198 13.6543 15.9897C13.7741 15.9596 13.8778 15.8847 13.944 15.7805L15.214 13.8475C15.4475 13.5373 15.792 13.3295 16.1752 13.2676C16.5585 13.2058 16.9508 13.2946 17.27 13.5155L17.933 13.9745C19.172 14.8345 20.503 15.8115 21.521 17.1145C21.6825 17.3223 21.7852 17.5696 21.8184 17.8306C21.8517 18.0917 21.8143 18.3568 21.71 18.5985C20.873 20.5515 18.755 22.2145 16.552 22.1335L16.252 22.1165L16.019 22.0965L15.761 22.0665L15.48 22.0285L15.175 21.9785C15.1216 21.9688 15.0683 21.9588 15.015 21.9485L14.679 21.8765C14.6203 21.8636 14.5616 21.8502 14.503 21.8365L14.137 21.7425L13.752 21.6325L13.35 21.5025C11.504 20.8765 9.16105 19.6465 6.75705 17.2425C4.35405 14.8395 3.12405 12.4965 2.49805 10.6505L2.36805 10.2485L2.25805 9.86346L2.16405 9.49746L2.08605 9.15146C2.06352 9.04309 2.04251 8.93442 2.02305 8.82546L1.97305 8.52046L1.93305 8.23946L1.90405 7.98146L1.88405 7.74846L1.86805 7.44846C1.78705 5.25246 3.46805 3.11946 5.41205 2.28646C5.64602 2.18543 5.90225 2.14696 6.15558 2.17484C6.40891 2.20271 6.65063 2.29597 6.85705 2.44546ZM14.992 6.04046L15.108 6.05346C15.836 6.18186 16.5045 6.5374 17.0179 7.06914C17.5314 7.60087 17.8632 8.2815 17.966 9.01346C18.0027 9.26664 17.9409 9.52424 17.7934 9.73326C17.646 9.94229 17.424 10.0868 17.1732 10.1372C16.9223 10.1875 16.6618 10.1398 16.445 10.0039C16.2283 9.86798 16.0719 9.65417 16.008 9.40646L15.985 9.29146C15.9448 9.00456 15.8224 8.73545 15.6325 8.51664C15.4426 8.29784 15.1934 8.1387 14.915 8.05846L14.76 8.02346C14.5089 7.97895 14.2843 7.8402 14.1321 7.63556C13.98 7.43093 13.9117 7.17589 13.9413 6.9226C13.971 6.66932 14.0963 6.43692 14.2916 6.27294C14.4869 6.10897 14.7375 6.0258 14.992 6.04046ZM15 3.00046C16.5913 3.00046 18.1175 3.6326 19.2427 4.75782C20.3679 5.88304 21 7.40916 21 9.00046C20.9998 9.25534 20.9022 9.50049 20.7272 9.68583C20.5522 9.87116 20.3131 9.9827 20.0587 9.99763C19.8042 10.0126 19.5537 9.92979 19.3582 9.7662C19.1628 9.6026 19.0371 9.37055 19.007 9.11746L19 9.00046C19.0004 7.98488 18.6143 7.00722 17.92 6.26599C17.2258 5.52475 16.2755 5.07551 15.262 5.00946L15 5.00046C14.7348 5.00046 14.4805 4.8951 14.2929 4.70757C14.1054 4.52003 14 4.26568 14 4.00046C14 3.73524 14.1054 3.48089 14.2929 3.29335C14.4805 3.10582 14.7348 3.00046 15 3.00046Z" fill="white"/>
</g>
<defs>
<clipPath id="clip0_534_556">
<rect width="24" height="24" fill="white"/>
</clipPath>
</defs>
</svg>
