<svg width="17" height="16" viewBox="0 0 17 16" fill="none" xmlns="http://www.w3.org/2000/svg">
<g clip-path="url(#clip0_534_530)">
<path d="M5.50561 1.62966C6.26761 2.18499 6.86094 2.94299 7.36761 3.66832L7.66228 4.09766L7.94028 4.50766C8.07933 4.71081 8.13879 4.95802 8.10731 5.20219C8.07584 5.44635 7.95564 5.67041 7.76961 5.83166L6.46894 6.79766C6.4061 6.84303 6.36187 6.90968 6.34446 6.9852C6.32705 7.06073 6.33764 7.14002 6.37428 7.20832C6.66894 7.74366 7.19294 8.54099 7.79294 9.14099C8.39361 9.74099 9.22828 10.2997 9.80094 10.6277C9.87274 10.668 9.95726 10.6792 10.0371 10.6591C10.117 10.6391 10.1861 10.5891 10.2303 10.5197L11.0769 9.23099C11.2326 9.02422 11.4622 8.8857 11.7177 8.84444C11.9732 8.80319 12.2348 8.86239 12.4476 9.00966L12.8896 9.31566C13.7156 9.88899 14.6029 10.5403 15.2816 11.409C15.3892 11.5475 15.4577 11.7124 15.4799 11.8864C15.502 12.0605 15.4771 12.2372 15.4076 12.3983C14.8496 13.7003 13.4376 14.809 11.9689 14.755L11.7689 14.7437L11.6136 14.7303L11.4416 14.7103L11.2543 14.685L11.0509 14.6517C11.0153 14.6452 10.9798 14.6386 10.9443 14.6317L10.7203 14.5837C10.6811 14.5751 10.642 14.5662 10.6029 14.557L10.3589 14.4943L10.1023 14.421L9.83428 14.3343C8.60361 13.917 7.04161 13.097 5.43894 11.4943C3.83694 9.89232 3.01694 8.33032 2.59961 7.09966L2.51294 6.83166L2.43961 6.57499L2.37694 6.33099L2.32494 6.10032C2.30992 6.02808 2.29592 5.95563 2.28294 5.88299L2.24961 5.67966L2.22294 5.49232L2.20361 5.32032L2.19028 5.16499L2.17961 4.96499C2.12561 3.50099 3.24628 2.07899 4.54228 1.52366C4.69826 1.4563 4.86908 1.43066 5.03796 1.44924C5.20685 1.46782 5.368 1.52999 5.50561 1.62966ZM10.9289 4.02632L11.0063 4.03499C11.4915 4.12059 11.9373 4.35762 12.2795 4.71211C12.6218 5.0666 12.8431 5.52035 12.9116 6.00832C12.936 6.17711 12.8949 6.34884 12.7965 6.48819C12.6982 6.62754 12.5502 6.72391 12.383 6.75747C12.2158 6.79103 12.0421 6.75924 11.8976 6.66862C11.7531 6.57801 11.6489 6.43546 11.6063 6.27032L11.5909 6.19366C11.5641 6.00239 11.4825 5.82298 11.3559 5.67711C11.2293 5.53124 11.0632 5.42515 10.8776 5.37166L10.7743 5.34832C10.6069 5.31865 10.4571 5.22615 10.3557 5.08973C10.2542 4.95331 10.2087 4.78328 10.2285 4.61442C10.2482 4.44556 10.3318 4.29063 10.462 4.18131C10.5922 4.07199 10.7592 4.01655 10.9289 4.02632ZM10.9343 1.99966C11.9951 1.99966 13.0126 2.42108 13.7627 3.17123C14.5128 3.92137 14.9343 4.93879 14.9343 5.99966C14.9341 6.16958 14.869 6.33301 14.7524 6.45657C14.6357 6.58013 14.4763 6.65448 14.3067 6.66444C14.1371 6.6744 13.97 6.61921 13.8397 6.51015C13.7094 6.40109 13.6257 6.24639 13.6056 6.07766L13.6009 5.99966C13.6012 5.3226 13.3438 4.67083 12.8809 4.17667C12.4181 3.68252 11.7846 3.38302 11.1089 3.33899L10.9343 3.33299C10.7575 3.33299 10.5879 3.26275 10.4629 3.13773C10.3378 3.0127 10.2676 2.84313 10.2676 2.66632C10.2676 2.48951 10.3378 2.31994 10.4629 2.19492C10.5879 2.06989 10.7575 1.99966 10.9343 1.99966Z" fill="white"/>
</g>
<defs>
<clipPath id="clip0_534_530">
<rect width="16" height="16" fill="white" transform="translate(0.693359)"/>
</clipPath>
</defs>
</svg>
