<svg width="14" height="14" viewBox="0 0 14 14" fill="none" xmlns="http://www.w3.org/2000/svg">
<g clip-path="url(#clip0_534_121)">
<path d="M11.5938 7C12.1978 7 12.6875 6.51031 12.6875 5.90625C12.6875 5.30219 12.1978 4.8125 11.5938 4.8125C10.9897 4.8125 10.5 5.30219 10.5 5.90625C10.5 6.51031 10.9897 7 11.5938 7Z" stroke="#4C4C4C" stroke-width="1.5" stroke-linecap="round" stroke-linejoin="round"/>
<path d="M2.40625 7C3.01031 7 3.5 6.51031 3.5 5.90625C3.5 5.30219 3.01031 4.8125 2.40625 4.8125C1.80219 4.8125 1.3125 5.30219 1.3125 5.90625C1.3125 6.51031 1.80219 7 2.40625 7Z" stroke="#4C4C4C" stroke-width="1.5" stroke-linecap="round" stroke-linejoin="round"/>
<path d="M5.03125 4.375C5.63531 4.375 6.125 3.88531 6.125 3.28125C6.125 2.67719 5.63531 2.1875 5.03125 2.1875C4.42719 2.1875 3.9375 2.67719 3.9375 3.28125C3.9375 3.88531 4.42719 4.375 5.03125 4.375Z" stroke="#4C4C4C" stroke-width="1.5" stroke-linecap="round" stroke-linejoin="round"/>
<path d="M8.96875 4.375C9.57281 4.375 10.0625 3.88531 10.0625 3.28125C10.0625 2.67719 9.57281 2.1875 8.96875 2.1875C8.36469 2.1875 7.875 2.67719 7.875 3.28125C7.875 3.88531 8.36469 4.375 8.96875 4.375Z" stroke="#4C4C4C" stroke-width="1.5" stroke-linecap="round" stroke-linejoin="round"/>
<path d="M7.00032 5.6875C6.57369 5.68766 6.15865 5.8264 5.81769 6.08284C5.47672 6.33927 5.22829 6.69953 5.10978 7.10938C4.93466 7.71218 4.52834 8.22132 3.97939 8.52578C3.58087 8.73826 3.27993 9.09658 3.1395 9.52581C2.99906 9.95504 3.03 10.4219 3.22584 10.8289C3.42169 11.2358 3.76728 11.5513 4.19034 11.7093C4.6134 11.8674 5.08119 11.8558 5.49587 11.6769C6.45955 11.2818 7.54001 11.2818 8.50368 11.6769C8.91837 11.8558 9.38615 11.8674 9.80921 11.7093C10.2323 11.5513 10.5779 11.2358 10.7737 10.8289C10.9696 10.4219 11.0005 9.95504 10.8601 9.52581C10.7196 9.09658 10.4187 8.73826 10.0202 8.52578C9.47151 8.22124 9.06556 7.71208 8.89087 7.10938C8.77236 6.69953 8.52392 6.33927 8.18296 6.08284C7.842 5.8264 7.42696 5.68766 7.00032 5.6875Z" stroke="#4C4C4C" stroke-width="1.5" stroke-linecap="round" stroke-linejoin="round"/>
</g>
<defs>
<clipPath id="clip0_534_121">
<rect width="14" height="14" fill="white"/>
</clipPath>
</defs>
</svg>
