<svg width="14" height="14" viewBox="0 0 14 14" fill="none" xmlns="http://www.w3.org/2000/svg">
<g clip-path="url(#clip0_534_113)">
<path d="M0.560547 10.9377C0.997549 10.2658 1.59545 9.71364 2.29997 9.33143C3.00449 8.94922 3.79332 8.74902 4.59484 8.74902C5.39636 8.74902 6.18519 8.94922 6.88971 9.33143C7.59424 9.71364 8.19214 10.2658 8.62914 10.9377" stroke="#4C4C4C" stroke-width="1.5" stroke-linecap="round" stroke-linejoin="round"/>
<path d="M9.40625 8.75C10.2077 8.74953 10.9966 8.9494 11.7012 9.33144C12.4058 9.71347 13.0037 10.2656 13.4405 10.9375" stroke="#4C4C4C" stroke-width="1.5" stroke-linecap="round" stroke-linejoin="round"/>
<path d="M4.59375 8.75C6.16431 8.75 7.4375 7.47681 7.4375 5.90625C7.4375 4.33569 6.16431 3.0625 4.59375 3.0625C3.02319 3.0625 1.75 4.33569 1.75 5.90625C1.75 7.47681 3.02319 8.75 4.59375 8.75Z" stroke="#4C4C4C" stroke-width="1.5" stroke-linecap="round" stroke-linejoin="round"/>
<path d="M8.34961 3.26484C8.73861 3.10969 9.15708 3.04238 9.57511 3.06771C9.99315 3.09304 10.4004 3.21039 10.7678 3.41137C11.1353 3.61235 11.4538 3.89201 11.7006 4.23036C11.9474 4.5687 12.1164 4.95739 12.1956 5.36864C12.2748 5.77989 12.2621 6.20355 12.1586 6.60934C12.055 7.01514 11.8631 7.39306 11.5966 7.7161C11.3301 8.03913 10.9955 8.29931 10.6167 8.47804C10.238 8.65676 9.82442 8.74963 9.40562 8.75" stroke="#4C4C4C" stroke-width="1.5" stroke-linecap="round" stroke-linejoin="round"/>
</g>
<defs>
<clipPath id="clip0_534_113">
<rect width="14" height="14" fill="white"/>
</clipPath>
</defs>
</svg>
